<svg width="180" height="180" viewBox="0 0 180 180" fill="none" xmlns="http://www.w3.org/2000/svg">
<path d="M154.863 31.1194L136.582 49.4042L145.898 58.7225C149.203 62.0278 149.203 67.3726 145.898 70.6428L139.781 76.7611C143.93 85.9387 146.25 96.136 146.25 106.861C146.25 147.263 113.52 180 73.125 180C32.7305 180 0 147.298 0 106.896C0 66.4936 32.7305 33.7566 73.125 33.7566C83.8477 33.7566 94.043 36.0774 103.219 40.2266L109.336 34.1082C112.641 30.803 117.984 30.803 121.254 34.1082L130.57 43.4264L148.852 25.1416L154.863 31.1194ZM175.781 21.0979H167.344C165.023 21.0979 163.125 22.9968 163.125 25.3174C163.125 27.6382 165.023 29.537 167.344 29.537H175.781C178.102 29.537 180 27.6382 180 25.3174C180 22.9968 178.102 21.0979 175.781 21.0979ZM154.688 0C152.367 0 150.469 1.89892 150.469 4.21957V12.6587C150.469 14.9795 152.367 16.8783 154.688 16.8783C157.008 16.8783 158.906 14.9795 158.906 12.6587V4.21957C158.906 1.89892 157.008 0 154.688 0ZM166.605 19.3398L172.582 13.3621C174.234 11.7093 174.234 9.03701 172.582 7.38429C170.93 5.73157 168.258 5.73157 166.605 7.38429L160.629 13.3621C158.977 15.0146 158.977 17.6871 160.629 19.3398C162.316 20.9924 164.988 20.9924 166.605 19.3398ZM142.77 19.3398C144.422 20.9924 147.094 20.9924 148.746 19.3398C150.398 17.6871 150.398 15.0146 148.746 13.3621L142.77 7.38429C141.117 5.73157 138.445 5.73157 136.793 7.38429C135.141 9.03701 135.141 11.7093 136.793 13.3621L142.77 19.3398ZM166.605 31.2952C164.953 29.6425 162.281 29.6425 160.629 31.2952C158.977 32.9479 158.977 35.6202 160.629 37.273L166.605 43.2507C168.258 44.9033 170.93 44.9033 172.582 43.2507C174.234 41.598 174.234 38.9255 172.582 37.273L166.605 31.2952ZM39.375 95.6437C39.375 83.2311 49.4648 73.1393 61.875 73.1393C64.9688 73.1393 67.5 70.6075 67.5 67.5132C67.5 64.4188 64.9688 61.8871 61.875 61.8871C43.2773 61.8871 28.125 77.0424 28.125 95.6437C28.125 98.738 30.6562 101.27 33.75 101.27C36.8438 101.27 39.375 98.738 39.375 95.6437Z" fill="#A72721"/>
</svg>
