<svg width="260" height="260" viewBox="0 0 260 260" fill="none" xmlns="http://www.w3.org/2000/svg">
<g clip-path="url(#clip0_18_172)">
<path d="M150.312 93.4375H109.688C109.688 130 101.562 203.125 85.3125 255.938H174.688C158.438 203.125 150.312 130 150.312 93.4375Z" fill="#FCD448"/>
<path d="M239.688 60.9375C237.656 40.2188 220.594 24.375 199.062 24.375C193.375 24.375 188.094 25.5938 183.219 27.625C176.719 13.8125 162.5 4.0625 146.25 4.0625C136.5 4.0625 127.562 7.3125 120.656 13.4062C116.188 7.71875 109.281 4.0625 101.562 4.0625C91 4.0625 81.6562 10.9687 78.4062 20.7188C76.7812 20.3125 74.75 20.3125 73.125 20.3125C54.8438 20.3125 39.4062 32.5 34.125 48.75C17.4687 49.9688 4.0625 64.1875 4.0625 81.25C4.0625 99.125 18.6875 113.75 36.5625 113.75C43.0625 113.75 48.75 111.719 54.0312 108.875C57.2812 119.031 66.2188 125.938 77.1875 125.938C85.7188 125.938 93.4375 121.469 97.9062 114.562C105.219 121.469 114.969 125.938 125.938 125.938C139.344 125.938 151.125 119.438 158.438 109.281C163.312 112.125 168.594 113.75 174.688 113.75C182.812 113.75 190.125 110.906 195.812 106.031C201.5 115.375 211.656 121.875 223.438 121.875C241.312 121.875 255.938 107.25 255.938 89.375C255.938 77.1875 249.438 66.625 239.688 60.9375Z" fill="#FCD448"/>
<path d="M255.938 255.938C255.938 242.531 244.969 231.562 231.562 231.562C223.031 231.562 215.312 236.031 210.844 242.937C207.594 240.906 203.531 239.688 199.062 239.688C197.844 239.688 196.219 239.687 195 240.094C189.312 230.344 178.75 223.438 166.562 223.438C156 223.438 146.656 228.719 140.562 236.438C136.5 233.188 131.625 231.562 125.938 231.562C118.625 231.562 111.719 234.812 107.25 240.094C102.375 227.906 90.5938 219.375 77.1875 219.375C63.7812 219.375 51.5938 227.906 47.125 240.094C42.6562 234.812 35.75 231.562 28.4375 231.562C15.0312 231.562 4.0625 242.531 4.0625 255.938H255.938Z" fill="#FCD448"/>
<path d="M231.562 227.5C223.031 227.5 215.312 231.156 209.625 237.656C205.562 236.031 201.5 235.219 197.031 235.625C190.938 226.281 180.781 220.188 169.406 219.375C166.156 203.531 162.906 186.469 160.469 169C174.688 167.781 186.875 164.531 186.875 158.438C186.875 155.594 186.875 150.312 158.031 147.469C156.812 137.719 156 127.969 155.594 119.031C157.219 117.812 158.438 116.188 160.062 114.562C171.438 119.438 184.844 118.625 195 111.719C201.906 120.656 212.469 125.938 223.844 125.938C244.156 125.938 260.406 109.688 260.406 89.375C260.406 76.7812 253.906 65.4062 243.75 58.5C240.094 36.5625 221.406 20.3125 199.062 20.3125C194.188 20.3125 189.719 21.125 184.844 22.75C177.125 8.9375 162.5 0 146.25 0C137.312 0 128.375 2.84375 121.062 7.71875C115.781 2.84375 108.875 0 101.562 0C90.5938 0 80.4375 6.5 75.9688 16.25C75.1562 16.25 73.9375 16.25 73.125 16.25C54.4375 16.25 37.7812 27.625 31.2812 45.0938C13.4062 47.5312 0 62.9688 0 81.25C0 101.562 16.25 117.812 36.5625 117.812C41.8438 117.812 47.125 116.594 52 114.562C56.875 123.906 66.625 130 77.1875 130C85.3125 130 93.0312 126.344 98.3125 120.656C100.344 122.281 101.969 123.5 104 124.719C103.594 132.438 102.781 140.156 101.969 147.875C73.125 150.312 73.125 155.594 73.125 158.438C73.125 164.531 85.3125 167.781 99.5312 169.406C97.0938 186.062 94.25 202.719 91 218.156C86.9375 216.531 82.0625 215.719 77.1875 215.719C64.1875 215.719 52 222.625 45.5 233.594C40.625 229.531 34.5312 227.5 28.4375 227.5C12.5938 227.5 0 240.094 0 255.938C0 258.375 1.625 260 4.0625 260C6.5 260 8.125 258.375 8.125 255.938C8.125 244.562 17.0625 235.625 28.4375 235.625C34.5312 235.625 39.8125 238.062 43.875 242.531C44.6875 243.75 46.3125 244.156 47.5312 243.75C48.75 243.344 49.9688 242.531 50.7812 241.312C55.25 230.344 65.4062 223.031 77.1875 223.031C88.9688 223.031 99.5312 230.344 103.594 241.312C104 242.531 105.219 243.75 106.844 243.75C108.062 244.156 109.688 243.344 110.5 242.531C114.562 238.062 119.844 235.625 125.938 235.625C130.406 235.625 134.469 236.844 138.125 239.688C138.938 240.5 140.156 240.5 140.969 240.5C142.188 240.5 143 239.688 143.812 238.875C149.094 231.562 157.625 227.5 166.562 227.5C176.719 227.5 186.469 233.188 191.344 242.125C192.156 243.75 193.781 244.562 195.406 244.156C197.031 243.75 197.844 243.75 199.062 243.75C202.719 243.75 205.969 244.562 209.219 246.188C211.25 247.406 213.281 246.594 214.5 244.969C218.156 239.281 224.656 235.625 231.562 235.625C242.938 235.625 251.875 244.562 251.875 255.938C251.875 258.375 253.5 260 255.938 260C258.375 260 260 258.375 260 255.938C260 240.094 247.406 227.5 231.562 227.5ZM175.094 158.438C171.844 159.25 166.562 160.469 159.25 160.875C158.844 159.25 158.844 157.219 158.438 155.594C166.969 156.406 172.25 157.625 175.094 158.438ZM97.9062 110.5H97.5C96.2812 110.5 95.0625 111.312 94.6562 112.531C90.5938 118.219 84.0938 121.875 77.1875 121.875C68.25 121.875 60.5312 116.188 57.6875 107.656C57.2812 106.438 56.4688 105.625 55.25 105.219C54.0312 104.812 52.8125 104.812 51.5938 105.625C47.125 108.062 41.8438 109.688 36.5625 109.688C20.7188 109.688 8.125 97.0938 8.125 81.25C8.125 66.2188 19.9062 54.0312 34.5312 52.8125C36.1562 52.8125 37.7812 51.5938 38.1875 49.9688C43.0625 34.5312 56.875 24.375 73.125 24.375C74.75 24.375 75.9688 24.375 78 24.7812C80.0312 25.1875 81.6562 23.9688 82.4688 21.9375C84.9062 13.8125 92.625 8.125 101.562 8.125C107.656 8.125 113.344 10.9688 117.406 15.8438C118.219 16.6562 119.031 17.0625 120.25 17.4688C121.469 17.4688 122.281 17.0625 123.094 16.6562C129.594 11.375 137.719 8.53125 146.25 8.53125C160.469 8.53125 173.469 17.0625 179.562 29.6562C180.375 31.6875 182.812 32.5 184.844 31.6875C189.312 29.25 194.188 28.4375 199.062 28.4375C218.156 28.4375 233.594 42.6563 235.625 61.3438C235.625 62.5625 236.438 63.7812 237.656 64.5938C246.594 69.4688 251.875 79.2188 251.875 89.375C251.875 105.219 239.281 117.812 223.438 117.812C213.281 117.812 204.344 112.531 199.062 104C198.25 102.781 197.438 102.375 196.219 101.969C195 101.969 193.781 101.969 192.969 102.781C184.031 110.094 170.625 111.312 160.469 105.625C158.844 104.406 156.406 105.219 155.188 106.844C148.281 116.594 137.719 121.875 125.938 121.875C116.594 121.875 107.656 118.219 100.75 111.719C99.9375 110.906 98.7188 110.5 97.9062 110.5ZM125.938 130C133.656 130 140.969 127.969 147.469 124.312C148.281 136.5 149.5 149.094 151.125 161.688C145.438 162.094 138.125 162.5 130 162.5C121.875 162.5 114.562 162.094 108.469 161.688C110.094 150.312 111.312 138.938 112.125 127.562C116.594 129.188 121.062 130 125.938 130ZM84.9062 158.438C88.1562 157.625 93.4375 156.406 101.156 155.594C100.75 157.219 100.75 159.25 100.344 160.875C93.4375 160.469 88.1562 159.25 84.9062 158.438ZM139.75 231.156C130 225.875 117.406 226.688 108.875 233.594C106.031 229.125 102.781 225.062 98.3125 222.219C101.969 205.969 105.219 188.094 107.656 170.219C115.375 170.625 123.5 170.625 130 170.625C136.5 170.625 144.625 170.625 152.344 169.812C154.781 186.875 157.625 203.938 161.281 219.781C153.156 221 145.438 225.062 139.75 231.156Z" fill="white"/>
<path d="M130 154.375C132.438 154.375 134.062 152.75 134.062 150.312V142.188C134.062 139.75 132.438 138.125 130 138.125C127.562 138.125 125.938 139.75 125.938 142.188V150.312C125.938 152.75 127.562 154.375 130 154.375Z" fill="white"/>
<path d="M130 178.75C127.562 178.75 125.938 180.375 125.938 182.812V207.188C125.938 209.625 127.562 211.25 130 211.25C132.438 211.25 134.062 209.625 134.062 207.188V182.812C134.062 180.375 132.438 178.75 130 178.75Z" fill="white"/>
</g>
<defs>
<clipPath id="clip0_18_172">
<rect width="260" height="260" fill="white"/>
</clipPath>
</defs>
</svg>
