<svg width="370" height="451" viewBox="0 0 370 451" fill="none" xmlns="http://www.w3.org/2000/svg">
    <path d="M324.277 291.532C324.277 282.941 331.271 275.934 339.931 275.934C348.496 275.934 355.496 282.929 355.496 291.532C355.496 300.095 348.498 307.097 339.931 307.097C331.272 307.097 324.277 300.087 324.277 291.532Z" stroke="171813" stroke-width="5"/>
    <path d="M64.1235 291.532C64.1235 282.938 71.1193 275.934 79.7491 275.934C88.3442 275.934 95.3424 282.931 95.3424 291.532C95.3424 300.093 88.3466 307.097 79.7491 307.097C71.1164 307.097 64.1235 300.09 64.1235 291.532Z" stroke="171813" stroke-width="5"/>
    <path d="M310.53 267.409V267.41C310.53 280.915 299.547 291.87 286.037 291.87C272.59 291.87 261.632 280.923 261.632 267.41C261.632 253.96 272.586 243.009 286.037 243.009C299.555 243.009 310.534 253.967 310.53 267.409Z" stroke="171813" stroke-width="5"/>
    <path d="M367.12 401.76H341.473V347.79C341.473 338.769 339.136 330.337 335.269 322.85C336.809 322.532 338.347 322.34 339.931 322.34C354.9 322.34 367.12 334.603 367.12 349.621V401.76Z" stroke="171813" stroke-width="5"/>
    <path d="M109.15 267.41C109.15 253.959 120.1 243.009 133.551 243.009C147.005 243.009 157.984 253.963 157.984 267.41C157.984 280.919 146.997 291.87 133.551 291.87C120.108 291.87 109.15 280.923 109.15 267.41Z" stroke="171813" stroke-width="5"/>
    <path d="M79.7491 322.34C81.3164 322.34 82.8363 322.532 84.3756 322.851C80.4922 330.342 78.1786 338.775 78.1786 347.79V401.76H52.5V349.617C52.5 334.61 64.7728 322.34 79.7491 322.34Z" stroke="171813" stroke-width="5"/>
    <circle cx="209.798" cy="226.461" r="37.285" stroke="#a72721" stroke-width="5"/>
    <path d="M326.585 347.785V347.785L326.589 422.794H284.552V339.373C284.552 328.172 281.901 317.732 277.508 308.326C280.288 307.652 283.131 307.237 286.037 307.237C308.383 307.237 326.585 325.409 326.585 347.785Z" stroke="171813" stroke-width="5"/>
    <path d="M135.008 339.374V422.794H93.0352V347.79C93.0352 325.412 111.207 307.242 133.555 307.242C136.483 307.242 139.312 307.656 142.083 308.33C137.687 317.729 135.008 328.169 135.008 339.374Z" stroke="171813" stroke-width="5"/>
    <path d="M269.732 339.374V447.656H149.864V339.374C149.864 306.269 176.696 279.412 209.798 279.412C242.842 279.412 269.732 306.27 269.732 339.374Z" stroke="#a72721" stroke-width="5"/>
    <path d="M121.937 150.851L121.87 150.856L121.804 150.864C116.204 151.577 110.566 151.95 104.921 151.98C76.4711 151.979 50.7737 143.457 32.2472 129.818C13.7169 116.176 2.5 97.5462 2.5 77.232C2.5 56.9179 13.7168 38.2924 32.2469 24.6545C50.775 11.0181 76.4753 2.5 104.928 2.5C133.38 2.5 159.08 11.0296 177.609 24.6722C196.14 38.3166 207.356 56.9424 207.356 77.232C207.356 100.366 192.099 122.83 165.941 137.092C164.638 137.801 163.617 138.934 163.047 140.303C162.478 141.671 162.393 143.192 162.806 144.615C166.069 155.924 171.072 166.644 177.626 176.392C158.892 173.35 141.344 165.11 127.008 152.557C125.831 151.475 124.295 150.866 122.697 150.845C122.444 150.83 122.19 150.832 121.937 150.851Z" stroke="#a72721" stroke-width="5"/>
    <path d="M84.7919 81.2878C87.0099 81.2878 88.8079 79.4898 88.8079 77.2719C88.8079 75.0539 87.0099 73.2559 84.7919 73.2559C82.5739 73.2559 80.7759 75.0539 80.7759 77.2719C80.7759 79.4898 82.5739 81.2878 84.7919 81.2878Z" fill="#a72721"/>
    <path d="M105.12 81.2878C107.338 81.2878 109.136 79.4898 109.136 77.2719C109.136 75.0539 107.338 73.2559 105.12 73.2559C102.902 73.2559 101.104 75.0539 101.104 77.2719C101.104 79.4898 102.902 81.2878 105.12 81.2878Z" fill="#a72721"/>
    <path d="M125.072 81.2878C127.29 81.2878 129.088 79.4898 129.088 77.2719C129.088 75.0539 127.29 73.2559 125.072 73.2559C122.854 73.2559 121.056 75.0539 121.056 77.2719C121.056 79.4898 122.854 81.2878 125.072 81.2878Z" fill="#a72721"/>
</svg>
