<svg width="408" height="408" viewBox="0 0 408 408" fill="none" xmlns="http://www.w3.org/2000/svg">
<path d="M318.601 245.062C318.601 236.45 325.605 229.429 334.275 229.429C342.85 229.429 349.863 236.438 349.863 245.062C349.863 253.647 342.853 260.664 334.275 260.664C325.607 260.664 318.601 253.639 318.601 245.062Z" stroke="white" stroke-width="5"/>
<path d="M58.1374 245.062C58.1374 236.447 65.1447 229.429 73.7845 229.429C82.3896 229.429 89.3993 236.44 89.3993 245.062C89.3993 253.645 82.392 260.664 73.7845 260.664C65.1418 260.664 58.1374 253.642 58.1374 245.062Z" stroke="white" stroke-width="5"/>
<path d="M304.843 220.892V220.893C304.843 234.43 293.843 245.407 280.318 245.407C266.855 245.407 255.881 234.437 255.881 220.893C255.881 207.413 266.851 196.439 280.318 196.439C293.852 196.439 304.847 207.42 304.843 220.892Z" stroke="white" stroke-width="5"/>
<path d="M361.5 355.513H335.817V301.432C335.817 292.392 333.475 283.941 329.602 276.439C331.146 276.12 332.687 275.927 334.275 275.927C349.263 275.927 361.5 288.214 361.5 303.267V355.513Z" stroke="white" stroke-width="5"/>
<path d="M103.217 220.893C103.217 207.412 114.184 196.439 127.65 196.439C141.12 196.439 152.115 207.416 152.115 220.893C152.115 234.434 141.112 245.407 127.65 245.407C114.192 245.407 103.217 234.438 103.217 220.893Z" stroke="white" stroke-width="5"/>
<path d="M73.7845 275.927C75.3556 275.927 76.8792 276.12 78.4222 276.44C74.5325 283.947 72.2151 292.398 72.2151 301.432V355.513H46.5V303.262C46.5 288.221 58.7905 275.927 73.7845 275.927Z" stroke="white" stroke-width="5"/>
<path d="M320.917 301.427V301.428L320.921 376.589H278.828V292.999C278.828 281.774 276.173 271.313 271.774 261.887C274.558 261.211 277.406 260.795 280.318 260.795C302.69 260.795 320.917 279.003 320.917 301.427Z" stroke="white" stroke-width="5"/>
<path d="M129.112 292.999V376.589H87.0834V301.432C87.0834 279.005 105.28 260.8 127.655 260.8C130.588 260.8 133.422 261.215 136.198 261.891C131.796 271.31 129.112 281.771 129.112 292.999Z" stroke="white" stroke-width="5"/>
<path d="M263.997 293V401.501H143.98V293C143.98 259.825 170.847 232.915 203.988 232.915C237.071 232.915 263.997 259.827 263.997 293Z" stroke="#FCD448" stroke-width="5"/>
<path d="M136.925 118.58L136.858 118.584L136.791 118.593C132.547 119.134 128.273 119.417 123.994 119.44C102.418 119.439 82.9527 112.967 68.9396 102.636C54.9231 92.3033 46.5 78.2415 46.5 62.964C46.5 47.6866 54.923 33.628 68.9393 23.2981C82.9537 12.9697 102.422 6.5 124 6.5C145.578 6.5 165.046 12.9784 179.06 23.3116C193.077 33.6465 201.5 47.7054 201.5 62.964C201.5 80.3537 190.041 97.332 170.231 108.147C169.119 108.754 168.249 109.722 167.763 110.891C167.278 112.058 167.205 113.356 167.557 114.57C169.934 122.824 173.516 130.669 178.179 137.855C164.513 135.383 151.734 129.239 141.232 120.033C140.231 119.114 138.927 118.595 137.569 118.574C137.354 118.562 137.139 118.564 136.925 118.58Z" stroke="#FCD448" stroke-width="5"/>
<path d="M108.648 66.0599C110.339 66.0599 111.71 64.6872 111.71 62.9938C111.71 61.3005 110.339 59.9277 108.648 59.9277C106.957 59.9277 105.586 61.3005 105.586 62.9938C105.586 64.6872 106.957 66.0599 108.648 66.0599Z" fill="#FCD448"/>
<path d="M124.146 66.0599C125.837 66.0599 127.208 64.6872 127.208 62.9938C127.208 61.3005 125.837 59.9277 124.146 59.9277C122.455 59.9277 121.084 61.3005 121.084 62.9938C121.084 64.6872 122.455 66.0599 124.146 66.0599Z" fill="#FCD448"/>
<path d="M139.358 66.0599C141.049 66.0599 142.42 64.6872 142.42 62.9938C142.42 61.3005 141.049 59.9277 139.358 59.9277C137.667 59.9277 136.297 61.3005 136.297 62.9938C136.297 64.6872 137.667 66.0599 139.358 66.0599Z" fill="#FCD448"/>
<path d="M241.22 179.895C241.22 200.55 224.491 217.29 203.86 217.29C183.229 217.29 166.5 200.55 166.5 179.895C166.5 159.24 183.229 142.5 203.86 142.5C224.491 142.5 241.22 159.24 241.22 179.895Z" stroke="#FCD448" stroke-width="5"/>
</svg>
